<?xml version="1.0" encoding="iso-8859-1"?>
<!-- Generator: Adobe Illustrator 19.0.0, SVG Export Plug-In . SVG Version: 6.00 Build 0)  -->
<svg xmlns="http://www.w3.org/2000/svg" version="1.1" id="Layer_1" x="0px" y="0px" viewBox="0 0 512.001 512.001"
     style="enable-background:new 0 0 512.001 512.001;" xml:space="preserve" width="512" height="512">
<g id="XMLID_1775_">
	<g id="XMLID_686_">
		<path id="XMLID_687_"
              d="M399.242,259.69c-2.63,0-5.21,1.07-7.07,2.931c-1.86,1.859-2.93,4.439-2.93,7.069s1.07,5.21,2.93,7.07    s4.44,2.93,7.07,2.93s5.21-1.069,7.07-2.93c1.86-1.86,2.93-4.44,2.93-7.07s-1.07-5.21-2.93-7.069    C404.452,260.76,401.872,259.69,399.242,259.69z"/>
        <path id="XMLID_690_"
              d="M485.876,411.514l-25.064-80.793c-0.856-2.759-2.863-5.013-5.504-6.182l-52.145-23.073    c-11.01-4.87-23.786-2.101-31.79,6.894l-9.544,10.725h-39.678c-2.144,0-4.23,0.688-5.952,1.965l-12.82,9.496    c-6.567-3.429-14.171-4.57-21.535-3.137c-9.141,1.783-17.129,7.388-21.916,15.377l-11.643,19.433    c-0.931,1.553-1.422,3.329-1.422,5.14v40.716c0,8.501,6.032,15.966,14.341,17.75l13.558,2.912l-5.003,12.419    c-2.461,6.111-1.416,13.087,2.729,18.206l26.42,32.64H110.124L60.104,208h83.565c5.523,0,10-4.478,10-10s-4.477-10-10-10H56.581    l-6.341-36h167.835h191.741l-13.44,76.306c-0.958,5.438,2.675,10.625,8.114,11.583c5.438,0.956,10.625-2.675,11.583-8.114    l15.506-88.04c0.513-2.91-0.289-5.899-2.189-8.163c-1.9-2.264-4.704-3.571-7.66-3.571h-2.286l-21.172-52.589    c-0.885-2.198-2.521-4.011-4.618-5.114l-74.853-39.406c-2.555-1.345-5.568-1.521-8.264-0.479L257.354,54.97    c-6.278,2.427-11.254,6.934-14.302,12.536l-21.709-10.296l-3.216-19.542c-2.142-13.013-11.833-23.318-24.689-26.253L144.551,0.251    c-3.498-0.8-7.16,0.339-9.59,2.983l-26.678,29.036L91.164,26.8c-16.075-5.136-33.292,0.761-42.842,14.676L32.339,64.765    c-6.264,9.126-8.229,20.497-5.393,31.196l9.598,36.213c-2.278,0.413-4.366,1.596-5.878,3.397c-1.9,2.264-2.702,5.253-2.189,8.163    l63.406,360c0.842,4.78,4.995,8.266,9.849,8.266h218.122c0.006,0,0.012,0.001,0.018,0.001c0.007,0,0.013-0.001,0.02-0.001h38.435    c4.854,0,9.006-3.485,9.849-8.266l1.64-9.315l10.316,10.68c4.237,4.386,10.165,6.901,16.263,6.901h34.317    c9.079,0,17.245-5.397,20.804-13.751l34.012-79.854C486.454,416.215,486.578,413.777,485.876,411.514z M264.565,73.624    l48.945-18.918l67.582,35.578L397.885,132H233.522l24.376-24.376c2.018-2.019,3.078-4.803,2.912-7.652l-1.091-18.732    c-0.001-0.027-0.003-0.053-0.005-0.08C259.522,77.849,261.471,74.821,264.565,73.624z M48.829,76.082l15.982-23.289    c4.517-6.581,12.662-9.372,20.264-6.941l23.206,7.415c3.712,1.186,7.773,0.11,10.408-2.76l27.071-29.464l43.225,9.87    c4.898,1.118,8.591,5.045,9.407,10.003l4.066,24.709c0.532,3.236,2.618,6.006,5.582,7.411l32.053,15.202l0.49,8.417    l-28.057,28.057c-1.516,1.516-2.504,3.479-2.82,5.599l-0.252,1.69H57.188l-10.91-41.163    C44.937,85.777,45.866,80.399,48.829,76.082z M433.113,490.412c-0.411,0.965-1.354,1.589-2.403,1.589h-34.317    c-0.704,0-1.389-0.291-1.878-0.797l-10.712-11.089c-4.37-4.523-10.219-6.923-16.21-6.923c-2.931,0-5.897,0.575-8.738,1.758    l-35.921,14.944l-34.217-42.273l5.416-13.444c2.006-4.98,1.712-10.556-0.806-15.298s-6.973-8.108-12.221-9.236l-14.243-3.06    v-36.458l10.221-17.06c1.903-3.177,4.954-5.317,8.588-6.026c3.635-0.707,7.265,0.128,10.224,2.357l1.785,1.345    c3.539,2.667,8.41,2.687,11.969,0.048l15.801-11.704h40.865c2.854,0,5.573-1.22,7.47-3.353l12.527-14.076    c2.206-2.478,5.724-3.24,8.758-1.899l47.986,21.233l22.63,72.945L433.113,490.412z"/>
        <path id="XMLID_693_"
              d="M399.195,382.783l4.508-21.251c1.146-5.402-2.304-10.711-7.707-11.857    c-5.403-1.149-10.711,2.304-11.857,7.707l-5.635,26.56c-0.703,3.312,0.318,6.753,2.711,9.146l20.915,20.914    c1.953,1.952,4.512,2.929,7.071,2.929s5.119-0.977,7.071-2.929c3.905-3.905,3.905-10.237,0-14.143L399.195,382.783z"/>
        <path id="XMLID_694_"
              d="M176.592,190.93c-1.86,1.86-2.92,4.44-2.92,7.07s1.06,5.21,2.92,7.069c1.87,1.86,4.45,2.931,7.08,2.931    s5.2-1.07,7.07-2.931c1.86-1.859,2.93-4.439,2.93-7.069s-1.07-5.21-2.93-7.07c-1.86-1.86-4.44-2.93-7.07-2.93    C181.032,188,178.462,189.07,176.592,190.93z"/>
        <path id="XMLID_695_"
              d="M120.573,117.039c0.343,0,0.689-0.018,1.038-0.054l23.563-2.43c6.126-0.633,11.442-4.782,13.544-10.571    l8.635-23.788c1.884-5.191-0.796-10.928-5.988-12.812c-5.191-1.884-10.927,0.796-12.812,5.987l-7.817,21.535L119.56,97.09    c-5.494,0.566-9.488,5.479-8.921,10.973C111.169,113.208,115.511,117.039,120.573,117.039z"/>
	</g>
</g>















</svg>
