<svg height="512" viewBox="0 0 60 60" width="512" xmlns="http://www.w3.org/2000/svg">
    <g id="Page-1" fill="none" fill-rule="evenodd">
        <g id="018---Cross" fill="rgb(0,0,0)" fill-rule="nonzero">
            <path id="Shape"
                  d="m55 0h-50c-2.76007596.00325114-4.99674886 2.23992404-5 5v50c.00325114 2.760076 2.23992404 4.9967489 5 5h50c2.760076-.0032511 4.9967489-2.239924 5-5v-50c-.0032511-2.76007596-2.239924-4.99674886-5-5zm-8 58h-42c-1.65610033-.0018187-2.99818129-1.3438997-3-3v-50c.00181871-1.65610033 1.34389967-2.99818129 3-3h44c1.6561003.00181871 2.9981813 1.34389967 3 3v50c-.0018187 1.6561003-1.3438997 2.9981813-3 3zm11-3c-.0018187 1.6561003-1.3438997 2.9981813-3 3h-2.0256c.6614385-.8605607 1.021786-1.9146194 1.0256-3v-50c-.003814-1.08538057-.3641615-2.13943932-1.0256-3h2.0256c1.6561003.00181871 2.9981813 1.34389967 3 3z"/>
            <path id="Shape"
                  d="m45.4844 18.2627c.4233002-.4232574.6611114-.9973434.6611114-1.59595s-.2378112-1.1726926-.6611114-1.59595l-3.5544-3.5562c-.8826131-.8791985-2.3100623-.8789749-3.1924.0005l-11.556 11.5562c-.0422706.0581399-.1098454.0924983-.1817275.0923994-.0718822-.000099-.1393622-.0346433-.1814725-.0928994l-11.5557-11.5562c-.8826131-.8791985-2.3100623-.8789749-3.1924.0005l-3.5547 3.5549c-.88148385.8815872-.88148385 2.3108128 0 3.1924l11.5544 11.5564c.0481442.0480923.0751957.1133505.0751957.1814s-.0270515.1333077-.0751957.1814l-11.5544 11.5557c-.42330023.4232574-.66111142.9973434-.66111142 1.59595s.23781119 1.1726926.66111142 1.59595l3.5544 3.5562c.8825661.8791172 2.3098339.8791172 3.1924 0l11.556-11.5567c.0422706-.0581399.1098454-.0924983.1817275-.0923994.0718822.000099.1393622.0346433.1814725.0928994l11.5557 11.5562c.8824754.8793367 2.3099246.8793367 3.1924 0l3.5547-3.5557c.4233002-.4232574.6611114-.9973434.6611114-1.59595s-.2378112-1.1726926-.6611114-1.59595l-11.5544-11.5566c-.0481442-.0480923-.0751957-.1133505-.0751957-.1814s.0270515-.1333077.0751957-.1814zm-12.9688 13.333 11.5544 11.5557c.1002514.1003129.1002514.2628871 0 .3632l-3.5544 3.5554c-.1007689.1000924-.2634311.1000924-.3642 0l-11.5557-11.5544c-.8926905-.8530974-2.2984422-.8533176-3.1914-.0005l-11.5557 11.5549c-.1007689.1000924-.2634311.1000924-.3642 0l-3.5544-3.5554c-.1002514-.1003129-.1002514-.2628871 0-.3632l11.5544-11.5552c.4233002-.4232574.6611114-.9973434.6611114-1.59595s-.2378112-1.1726926-.6611114-1.59595l-11.5544-11.5557c-.10025373-.1005072-.10025373-.2631928 0-.3637l3.5544-3.5549c.0482259-.0483692.1136934-.0755963.1819964-.0756901.0683031-.0000938.1338451.0269535.1822036.0751901l11.5557 11.5549c.8928241.8529575 2.2985759.8529575 3.1914 0l11.5557-11.5544c.1005179-.1005046.2634065-.1007282.3642-.0005l3.5544 3.5559c.1002514.1003129.1002514.2628871 0 .3632l-11.5544 11.5552c-.4233002.4232574-.6611114.9973434-.6611114 1.59595s.2378112 1.1726926.6611114 1.59595z"/>
        </g>
    </g>
</svg>