<svg height="512" viewBox="0 0 60 58" width="512" xmlns="http://www.w3.org/2000/svg">
    <g id="Page-1" fill="none" fill-rule="evenodd">
        <g id="055---Image-Folder" fill-rule="nonzero" transform="translate(0 -1)">
            <path id="Shape"
                  d="m58.96 25.39-5.88 29.39c-.3719089 1.8706156-2.0127726 3.2184679-3.92 3.22h-38.32c-1.90722744-.0015321-3.54809115-1.3493844-3.92-3.22l-5.88-29.39c-.11670899-.5870173.03561021-1.1954503.41513423-1.6582372s.94635929-.7312821 1.54486577-.7317628h54c.5985065.0004807 1.1653417.2689759 1.5448658.7317628.379524.4627869.5318432 1.0712199.4151342 1.6582372z"
                  fill="#e8edfc"/>
            <path id="Shape"
                  d="m57 23h-3c.5985065.0004807 1.1653417.2689759 1.5448658.7317628.379524.4627869.5318432 1.0712199.4151342 1.6582372l-5.88 29.39c-.3719089 1.8706156-2.0127726 3.2184679-3.92 3.22h3c1.9072274-.0015321 3.5480911-1.3493844 3.92-3.22l5.88-29.39c.116709-.5870173-.0356102-1.1954503-.4151342-1.6582372-.3795241-.4627869-.9463593-.7312821-1.5448658-.7317628z"
                  fill="#cad9fc"/>
            <path id="Shape" d="m17.65 13-3.64 10h-9.01v-7c0-1.6568542 1.34314575-3 3-3z" fill="#a4c2f7"/>
            <path id="Shape" d="m14.65 13-3.64 10h3l3.64-10z" fill="#7facfa"/>
            <path id="Shape"
                  d="m56.88 16.31-1.88 5.16-.56 1.53h-4.25l1.82-5 .43-1.18-28.19-10.26-5.99 16.44h-4.25l3.64-10 3.52-9.68c.3759066-1.03797308 1.5217265-1.57507615 2.56-1.2l31.95 11.63c1.0379731.3759066 1.5750761 1.5217265 1.2 2.56z"
                  fill="#a4c2f7"/>
            <path id="Shape"
                  d="m55.68 13.75-31.95-11.63c-.6778714-.24556538-1.4356539-.10305016-1.978.372l30.928 11.258c1.0379731.3759066 1.5750761 1.5217265 1.2 2.56l-1.88 5.16-.56 1.53h3l.56-1.53 1.88-5.16c.3750761-1.0382735-.1620269-2.1840934-1.2-2.56z"
                  fill="#7facfa"/>
            <path id="Shape" d="m32.69 23h-13.7l10.98-5.84z" fill="#a4c2f7"/>
            <path id="Shape"
                  d="m52.44 16.82-.43 1.18-1.82 5h-2.67l-2.09-4.47-8.4 4.47h-4.34l-2.72-5.84-10.98 5.84h-.73l5.99-16.44z"
                  fill="#e8edfc"/>
            <path id="Shape" d="m24.25 6.56-.351.964 25.541 9.296-.43 1.18-1.676 4.603.186.397h2.67l1.82-5 .43-1.18z"
                  fill="#cad9fc"/>
            <path id="Shape" d="m47.52 23h-10.49l8.4-4.47z" fill="#a4c2f7"/>
            <circle id="Oval" cx="36.289" cy="17.332" fill="#e8edfc" r="2"/>
            <path id="Shape"
                  d="m6 23h2v-7c0-1.6568542 1.34314575-3 3-3h-3c-1.65685425 0-3 1.3431458-3 3v7h-2c-.59850648.0004807-1.16534175.2689759-1.54486577.7317628s-.53184322 1.0712199-.41513423 1.6582372l5.88 29.39c.37190885 1.8706156 2.01277256 3.2184679 3.92 3.22h3c-1.9072274-.0015321-3.5480911-1.3493844-3.92-3.22l-5.88-29.39c-.11670899-.5870173.03561021-1.1954503.41513423-1.6582372s.94635929-.7312821 1.54486577-.7317628z"
                  fill="#fff"/>
            <path id="Rectangle-path" d="m5.135 46.858h2v8h-2z" fill="#fff"
                  transform="matrix(.981 -.196 .196 .981 -9.859 2.192)"/>
            <g fill="#428dff">
                <path id="Shape"
                      d="m5.155 51.054c.07947578.3965777.39001885.7062305.78682307.7845674.39680422.078337.8017255-.0900692 1.02594915-.4266907.22422364-.3366214.22359249-.7751662-.00159915-1.1111408-.22519164-.3359747-.63059598-.5032147-1.02717307-.4237359-.54151395.1085258-.89252175.6354852-.784 1.177z"/>
                <path id="Shape"
                      d="m59.323 23.1c-.5691002-.6978736-1.4225009-1.1019807-2.323-1.1h-1.13l1.948-5.344c.2752691-.7422614.2414092-1.5639047-.094-2.281-.3346395-.7277489-.9469353-1.2910611-1.7-1.564l-31.948-11.629c-.7423327-.27481835-1.5637965-.24096583-2.281.094-.7281949.33433232-1.2919244.94669021-1.565 1.7l-3.282 9.024h-8.948c-2.209139 0-4 1.790861-4 4v6h-1c-.8981865.0006022-1.74885038.4036128-2.31821705 1.0982789-.56936667.6946661-.79752835 1.607896-.62178295 2.4887211l4.31 21.545c.06936979.3511312.32111253.6384132.66009622.7532841.33898368.1148709.71351221.0398124.98205358-.1968114.26854137-.2366237.39014216-.5987268.3188502-.9494727l-4.31-21.545c-.06267987-.2911108.01096846-.5949102.2-.825.19060634-.2343441.47692881-.3699706.779-.369h54c.3003377-.0002547.5848863.1344928.775.367.1896073.2301945.2633054.5345676.2.826l-5.875 29.393c-.2793482 1.4025642-1.5098879 2.4129461-2.94 2.414h-38.32c-1.43011209-.0010539-2.66065175-1.0114358-2.94-2.414-.06948815-.3504776-.3206754-.6372607-.65894194-.7523209-.33826654-.1150603-.71222163-.0409173-.98100001.1945-.26877838.2354172-.39154622.5963434-.32205805.9468209.46752283 2.3375139 2.51819315 4.0213058 4.902 4.025h38.32c2.3824387-.0044534 4.4317949-1.6870167 4.9-4.023l5.879-29.39c.1800096-.8794717-.0463146-1.7932188-.616-2.487zm-37.214-19.437c.092033-.25318567.2813993-.45911253.526-.572.236562-.11140331.5080814-.1225814.753-.031l31.949 11.629c.2534893.0920732.4595109.2818867.572.527.110845.2359934.1220182.506674.031.751l-2.2 6.033h-2.121l1.761-4.837c.0906832-.2495564.078394-.5249323-.0341582-.7654189-.1125523-.2404866-.316126-.4263378-.5658418-.5165811l-28.188-10.261c-.2494328-.0903728-.5245545-.07792405-.7648063.03460607-.2402518.11253011-.4259408.31591776-.5161937.56539393l-5.751 15.78h-2.123zm24.227 14.443c-.1161679-.2484278-.3292654-.4382442-.5894199-.5250254-.2601546-.0867812-.5445328-.0629105-.7865801.0660254l-8.18 4.353h-3.453l-2.45-5.262c-.11578-.2490495-.3288946-.439518-.5893334-.5267092s-.5452746-.0634294-.7876666.0657092l-9.584 5.1 4.931-13.536 26.311 9.577-1.667 4.582h-1.335zm-.388 3.894h-4.91l3.932-2.092zm-14.827 0h-8.121l6.509-3.462zm-25.121-6c0-1.1045695.8954305-2 2-2h8.22l-2.91 8h-7.31z"/>
                <path id="Shape"
                      d="m9 27c0-.5522847-.44771525-1-1-1h-2c-.55228475 0-1 .4477153-1 1s.44771525 1 1 1h2c.55228475 0 1-.4477153 1-1z"/>
                <path id="Shape"
                      d="m28 28c.5522847 0 1-.4477153 1-1s-.4477153-1-1-1h-16c-.5522847 0-1 .4477153-1 1s.4477153 1 1 1z"/>
                <path id="Shape"
                      d="m37.315 14.514c-1.549102-.567343-3.2656239.2225622-3.8423878 1.7681812-.576764 1.5456191.2026756 3.2669184 1.7447545 3.853082s3.2680918-.1827817 3.8636333-1.7212632c.006-.014.014-.026.019-.04l.007-.015c.5660273-1.5563115-.2360788-3.2769007-1.792-3.844zm-1.368 3.758c-.4563048-.1656165-.7277638-.6350182-.6437265-1.1131192.0840374-.478101.4992959-.8267961.9847265-.8268808.1166657.0004481.2323735.0210861.342.061.3449805.1150329.6003207.4082767.6668153.7657996.0664945.3575229-.0663393.7229618-.3468928.9543359-.2805534.231374-.6645974.2922072-1.0029225.1588645z"/>
            </g>
        </g>
    </g>
</svg>