<svg id="_x31_" enable-background="new 0 0 24 24" height="512" viewBox="0 0 24 24" width="512"
     xmlns="http://www.w3.org/2000/svg">
    <path d="m17.003 9.938c-.001 0-.001 0-.002 0-2.757-.001-4.999-2.246-4.998-5.002.001-2.756 2.244-4.997 5-4.997h.003c1.335 0 2.591.521 3.535 1.466s1.463 2.201 1.462 3.536c-.001 2.756-2.244 4.997-5 4.997zm-4-5.002c-.001 2.206 1.793 4.001 3.999 4.002h.001c2.205 0 3.999-1.793 4-3.998 0-1.068-.415-2.073-1.17-2.829s-1.759-1.172-2.828-1.173c-.001 0-.002 0-.002 0-1.068 0-2.072.416-2.827 1.17-.755.755-1.172 1.76-1.173 2.828z"/>
    <path d="m23.5 11.942c-.128 0-.256-.049-.354-.146l-3.316-3.32c-.195-.195-.195-.512 0-.707s.512-.195.707 0l3.316 3.32c.195.195.195.512 0 .707-.097.097-.225.146-.353.146z"/>
    <path d="m17.5 24h-15c-1.378 0-2.5-1.121-2.5-2.5v-19c0-1.378 1.122-2.5 2.5-2.5h7c.276 0 .5.224.5.5s-.224.5-.5.5h-7c-.827 0-1.5.673-1.5 1.5v19c0 .827.673 1.5 1.5 1.5h15c.827 0 1.5-.673 1.5-1.5v-6c0-.276.224-.5.5-.5s.5.224.5.5v6c0 1.379-1.122 2.5-2.5 2.5z"/>
    <path d="m3.5 21c-.276 0-.5-.224-.5-.5v-5c0-.276.224-.5.5-.5h1.5c1.103 0 2 .897 2 2s-.897 2-2 2h-1v1.5c0 .276-.224.5-.5.5zm.5-3h1c.551 0 1-.448 1-1s-.449-1-1-1h-1z"/>
    <path d="m10.5 21h-2c-.276 0-.5-.224-.5-.5v-5c0-.276.224-.5.5-.5h2c.827 0 1.5.673 1.5 1.5v3c0 .827-.673 1.5-1.5 1.5zm-1.5-1h1.5c.276 0 .5-.225.5-.5v-3c0-.275-.224-.5-.5-.5h-1.5z"/>
    <path d="m13.5 21c-.276 0-.5-.224-.5-.5v-4c0-.827.673-1.5 1.5-1.5h2c.276 0 .5.224.5.5s-.224.5-.5.5h-2c-.276 0-.5.225-.5.5v4c0 .276-.224.5-.5.5z"/>
    <path d="m16.5 19h-3c-.276 0-.5-.224-.5-.5s.224-.5.5-.5h3c.276 0 .5.224.5.5s-.224.5-.5.5z"/>
</svg>