<?xml version="1.0" encoding="iso-8859-1"?>
<!-- Generator: Adobe Illustrator 19.0.0, SVG Export Plug-In . SVG Version: 6.00 Build 0)  -->
<svg version="1.1" id="Capa_1" xmlns="http://www.w3.org/2000/svg" x="0px" y="0px"
     viewBox="0 0 507.029 507.029" style="enable-background:new 0 0 507.029 507.029;" xml:space="preserve">
<g>
	<g>
		<path d="M466.197,179.101L359.915,72.819c-18.88-18.88-49.536-18.88-68.416,0c-8.64,8.64-13.333,19.776-14.037,31.104
			c-16.875-5.803-36.971-1.408-49.963,11.563c-8.64,8.64-13.333,19.776-14.037,31.125c-16.96-5.803-36.459-1.941-49.963,11.541
			c-7.083,7.083-11.499,15.829-13.269,24.981l-67.648-67.648c-18.283-18.261-50.133-18.261-68.416,0
			C5.035,124.616,0,136.797,0,149.704s5.035,25.067,14.165,34.197l160.917,160.917l-85.973,12.288
			c-29.312,4.181-51.392,29.653-51.392,59.264c0,17.643,14.357,32,32,32h275.819c31.317,0,60.779-12.203,82.944-34.389
			l37.717-37.717c26.325-26.325,40.832-61.333,40.832-98.581S492.523,205.427,466.197,179.101z M451.157,361.203L413.44,398.92
			c-18.155,18.133-42.283,28.117-67.904,28.117H69.717c-5.867,0-10.667-4.779-10.667-10.667c0-19.051,14.208-35.456,33.067-38.144
			l107.115-15.296c3.989-0.576,7.317-3.349,8.619-7.189c1.28-3.84,0.277-8.064-2.581-10.923l-176-176
			c-10.539-10.539-10.539-27.712,0-38.251c5.269-5.269,12.203-7.915,19.115-7.915c6.912,0,13.845,2.645,19.115,7.936
			l133.333,133.333c4.16,4.16,10.923,4.16,15.083,0c2.069-2.091,3.115-4.821,3.115-7.552c0-2.731-1.024-5.461-3.115-7.552
			l-37.333-37.333c-5.099-5.12-7.915-11.904-7.915-19.115c0-7.211,2.816-13.995,7.915-19.115c10.219-10.219,28.032-10.219,38.251,0
			l37.333,37.333c4.16,4.16,10.923,4.16,15.083,0c2.069-2.091,3.115-4.821,3.115-7.552s-1.024-5.461-3.115-7.552l-26.667-26.667
			c-10.539-10.539-10.539-27.712,0-38.251c10.539-10.539,27.712-10.539,38.251,0l26.667,26.667c4.16,4.16,10.923,4.16,15.083,0
			c2.069-2.091,3.115-4.821,3.115-7.552c0-2.731-1.024-5.461-3.115-7.552l-16-16c-5.099-5.099-7.915-11.904-7.915-19.115
			c0-7.211,2.816-13.995,7.915-19.115c10.219-10.219,28.032-10.219,38.251,0l106.325,106.304
			c22.293,22.293,34.581,51.968,34.581,83.499C485.739,309.235,473.451,338.909,451.157,361.203z"/>
	</g>
</g>
    <g>
</g>
    <g>
</g>
    <g>
</g>
    <g>
</g>
    <g>
</g>
    <g>
</g>
    <g>
</g>
    <g>
</g>
    <g>
</g>
    <g>
</g>
    <g>
</g>
    <g>
</g>
    <g>
</g>
    <g>
</g>
    <g>
</g>
</svg>
