<?xml version="1.0" encoding="UTF-8" standalone="no"?>
<!-- Generator: Adobe Illustrator 19.0.0, SVG Export Plug-In . SVG Version: 6.00 Build 0)  -->

<svg
        xmlns:dc="http://purl.org/dc/elements/1.1/"
        xmlns:cc="http://creativecommons.org/ns#"
        xmlns:rdf="http://www.w3.org/1999/02/22-rdf-syntax-ns#"
        xmlns:sodipodi="http://sodipodi.sourceforge.net/DTD/sodipodi-0.dtd"
        xmlns:inkscape="http://www.inkscape.org/namespaces/inkscape"
        xmlns="http://www.w3.org/2000/svg"
        version="1.1"
        id="Capa_1"
        x="0px"
        y="0px"
        viewBox="0 0 438.891 438.891"
        style="enable-background:new 0 0 438.891 438.891;"
        xml:space="preserve"
        sodipodi:docname="uncheckAll.svg"
        inkscape:version="0.92.4 (5da689c313, 2019-01-14)"><metadata
   id="metadata927"><rdf:RDF><cc:Work
       rdf:about=""><dc:format>image/svg+xml</dc:format><dc:type
        rdf:resource="http://purl.org/dc/dcmitype/StillImage"/><dc:title></dc:title></cc:Work></rdf:RDF></metadata>
    <defs
            id="defs925">
	

		
	
			
			
			
			
			
			
			
		</defs>
    <sodipodi:namedview
            pagecolor="#ffffff"
            bordercolor="#666666"
            borderopacity="1"
            objecttolerance="10"
            gridtolerance="10"
            guidetolerance="10"
            inkscape:pageopacity="0"
            inkscape:pageshadow="2"
            inkscape:window-width="1920"
            inkscape:window-height="1001"
            id="namedview923"
            showgrid="false"
            inkscape:zoom="1.8410038"
            inkscape:cx="219.4455"
            inkscape:cy="185.13026"
            inkscape:window-x="-9"
            inkscape:window-y="-9"
            inkscape:window-maximized="1"
            inkscape:current-layer="Capa_1"/>
    <g
            id="g1239"><path
     d="M 347.968,57.503 H 308.262 V 39.74 c 0,-5.747 -6.269,-8.359 -12.016,-8.359 H 265.422 C 258.108,10.483 239.822,0.034 218.924,0.034 198.256,-0.743 179.457,11.93 172.426,31.381 h -30.302 c -5.747,0 -11.494,2.612 -11.494,8.359 V 57.503 H 90.923 c -23.53,0.251 -42.78,18.813 -43.886,42.318 v 299.363 c 0,22.988 20.898,39.706 43.886,39.706 h 257.045 c 22.988,0 43.886,-16.718 43.886,-39.706 V 99.822 C 390.748,76.316 371.498,57.754 347.968,57.503 Z M 151.527,52.279 h 28.735 c 5.016,-0.612 9.045,-4.428 9.927,-9.404 3.094,-13.474 14.915,-23.146 28.735,-23.51 13.692,0.415 25.335,10.117 28.212,23.51 0.937,5.148 5.232,9.013 10.449,9.404 h 29.78 V 94.075 H 151.527 Z m 219.429,346.906 c 0,11.494 -11.494,18.808 -22.988,18.808 H 90.923 c -11.494,0 -22.988,-7.314 -22.988,-18.808 V 99.822 C 69.001,87.858 78.913,78.621 90.923,78.402 h 39.706 v 26.645 c 0.552,5.854 5.622,10.233 11.494,9.927 h 154.122 c 5.98,0.327 11.209,-3.992 12.016,-9.927 V 78.401 h 39.706 c 12.009,0.22 21.922,9.456 22.988,21.42 v 299.364 z"
     id="path872"
     inkscape:connector-curvature="0" />
        <g
                id="g1232"><path
       inkscape:connector-curvature="0"
       id="path876"
       d="M 329.16,256.034 H 208.997 c -5.771,0 -10.449,4.678 -10.449,10.449 0,5.771 4.678,10.449 10.449,10.449 H 329.16 c 5.771,0 10.449,-4.678 10.449,-10.449 0,-5.771 -4.678,-10.449 -10.449,-10.449 z" />
            <path
                    inkscape:connector-curvature="0"
                    id="path880"
                    d="M 329.16,172.442 H 208.997 c -5.771,0 -10.449,4.678 -10.449,10.449 0,5.771 4.678,10.449 10.449,10.449 H 329.16 c 5.771,0 10.449,-4.678 10.449,-10.449 0,-5.771 -4.678,-10.449 -10.449,-10.449 z"/>
            <path
                    inkscape:connector-curvature="0"
                    id="path884"
                    d="M 329.16,339.626 H 208.997 c -5.771,0 -10.449,4.678 -10.449,10.449 0,5.771 4.678,10.449 10.449,10.449 H 329.16 c 5.771,0 10.449,-4.678 10.449,-10.449 0,-5.771 -4.678,-10.449 -10.449,-10.449 z"/></g></g>
    <g
            id="g892">
</g>
    <g
            id="g894">
</g>
    <g
            id="g896">
</g>
    <g
            id="g898">
</g>
    <g
            id="g900">
</g>
    <g
            id="g902">
</g>
    <g
            id="g904">
</g>
    <g
            id="g906">
</g>
    <g
            id="g908">
</g>
    <g
            id="g910">
</g>
    <g
            id="g912">
</g>
    <g
            id="g914">
</g>
    <g
            id="g916">
</g>
    <g
            id="g918">
</g>
    <g
            id="g920">
</g>
    <g
            id="g1140"
            transform="matrix(0.30935268,0,0,0.30935268,-140.30225,76.427335)"
            style="stroke:none;stroke-opacity:1;stroke-width:0;stroke-miterlimit:4;stroke-dasharray:none">
	<g
            id="g1138"
            style="stroke:none;stroke-opacity:1;stroke-width:0;stroke-miterlimit:4;stroke-dasharray:none">
		
	</g>
</g>
    <g
            id="g1142"
            transform="matrix(0.30935268,0,0,0.30935268,-140.30225,76.427335)">
</g>
    <g
            id="g1144"
            transform="matrix(0.30935268,0,0,0.30935268,-140.30225,76.427335)">
</g>
    <g
            id="g1146"
            transform="matrix(0.30935268,0,0,0.30935268,-140.30225,76.427335)">
</g>
    <g
            id="g1148"
            transform="matrix(0.30935268,0,0,0.30935268,-140.30225,76.427335)">
</g>
    <g
            id="g1150"
            transform="matrix(0.30935268,0,0,0.30935268,-140.30225,76.427335)">
</g>
    <g
            id="g1152"
            transform="matrix(0.30935268,0,0,0.30935268,-140.30225,76.427335)">
</g>
    <g
            id="g1154"
            transform="matrix(0.30935268,0,0,0.30935268,-140.30225,76.427335)">
</g>
    <g
            id="g1156"
            transform="matrix(0.30935268,0,0,0.30935268,-140.30225,76.427335)">
</g>
    <g
            id="g1158"
            transform="matrix(0.30935268,0,0,0.30935268,-140.30225,76.427335)">
</g>
    <g
            id="g1160"
            transform="matrix(0.30935268,0,0,0.30935268,-140.30225,76.427335)">
</g>
    <g
            id="g1162"
            transform="matrix(0.30935268,0,0,0.30935268,-140.30225,76.427335)">
</g>
    <g
            id="g1164"
            transform="matrix(0.30935268,0,0,0.30935268,-140.30225,76.427335)">
</g>
    <g
            id="g1166"
            transform="matrix(0.30935268,0,0,0.30935268,-140.30225,76.427335)">
</g>
    <g
            id="g1168"
            transform="matrix(0.30935268,0,0,0.30935268,-140.30225,76.427335)">
</g>
    <g
            id="g1170"
            transform="matrix(0.30935268,0,0,0.30935268,-140.30225,76.427335)">
</g></svg>