<?xml version="1.0" encoding="UTF-8" standalone="no"?>
<svg
        xmlns:dc="http://purl.org/dc/elements/1.1/"
        xmlns:cc="http://creativecommons.org/ns#"
        xmlns:rdf="http://www.w3.org/1999/02/22-rdf-syntax-ns#"
        xmlns:sodipodi="http://sodipodi.sourceforge.net/DTD/sodipodi-0.dtd"
        xmlns:inkscape="http://www.inkscape.org/namespaces/inkscape"
        xmlns="http://www.w3.org/2000/svg"
        id="Capa_1"
        enable-background="new 0 0 512 512"
        height="512"
        viewBox="0 0 512 512"
        width="512"
        version="1.1"
        sodipodi:docname="video.svg"
        inkscape:version="0.92.4 (5da689c313, 2019-01-14)">
    <metadata
            id="metadata4590">
        <rdf:RDF>
            <cc:Work
                    rdf:about="">
                <dc:format>image/svg+xml</dc:format>
                <dc:type
                        rdf:resource="http://purl.org/dc/dcmitype/StillImage"/>
                <dc:title></dc:title>
            </cc:Work>
        </rdf:RDF>
    </metadata>
    <defs
            id="defs4588"/>
    <sodipodi:namedview
            pagecolor="#ffffff"
            bordercolor="#666666"
            borderopacity="1"
            objecttolerance="10"
            gridtolerance="10"
            guidetolerance="10"
            inkscape:pageopacity="0"
            inkscape:pageshadow="2"
            inkscape:window-width="1920"
            inkscape:window-height="1001"
            id="namedview4586"
            showgrid="false"
            inkscape:zoom="1.578125"
            inkscape:cx="256"
            inkscape:cy="256"
            inkscape:window-x="-9"
            inkscape:window-y="-9"
            inkscape:window-maximized="1"
            inkscape:current-layer="Capa_1"/>
    <path
            style="fill:#27d8f6"
            inkscape:connector-curvature="0"
            id="path4555"
            d="M 426,137 H 86 c -24.813,0 -45,20.187 -45,45 v 180 c 0,24.813 20.187,45 45,45 h 340 c 24.813,0 45,-20.187 45,-45 V 182 c 0,-24.813 -20.187,-45 -45,-45 z"/>
    <path
            style="fill:#3aaaff"
            inkscape:connector-curvature="0"
            id="path4557"
            d="M 426,137 H 256 v 270 h 170 c 24.813,0 45,-20.187 45,-45 V 182 c 0,-24.813 -20.187,-45 -45,-45 z"/>
    <path
            style="fill:#f5f0eb"
            inkscape:connector-curvature="0"
            id="path4567"
            d="M 485,377 H 27 c -14.888,0 -27,12.112 -27,27 0,41.355 33.645,75 75,75 h 362 c 41.355,0 75,-33.645 75,-75 0,-14.888 -12.112,-27 -27,-27 z"/>
    <path
            style="fill:#dad0cb"
            inkscape:connector-curvature="0"
            id="path4569"
            d="M 485,377 H 256 v 102 h 181 c 41.355,0 75,-33.645 75,-75 0,-14.888 -12.112,-27 -27,-27 z"/>
    <path
            style="fill:#ffda2d"
            inkscape:connector-curvature="0"
            id="path4571"
            d="M 467,33 H 318 c -24.813,0 -45,20.187 -45,45 v 127.799 l -11.929,39.763 c -3.623,12.076 0.512,24.822 10.535,32.47 5.399,4.12 11.772,6.202 18.175,6.202 5.484,0 10.991,-1.528 15.923,-4.611 L 332.302,263 H 467 c 24.813,0 45,-20.187 45,-45 V 78 C 512,53.187 491.813,33 467,33 Z"/>
    <path
            style="fill:#fdbf00"
            inkscape:connector-curvature="0"
            id="path4573"
            d="m 467,33 h -75 v 230 h 75 c 24.813,0 45,-20.187 45,-45 V 78 C 512,53.187 491.813,33 467,33 Z"/>
    <path
            style="fill:#6c6c6c"
            inkscape:connector-curvature="0"
            id="path4575"
            d="m 432,97 h -80 c -8.284,0 -15,6.716 -15,15 0,8.284 6.716,15 15,15 h 80 c 8.284,0 15,-6.716 15,-15 0,-8.284 -6.716,-15 -15,-15 z"/>
    <path
            style="fill:#404040"
            inkscape:connector-curvature="0"
            id="path4577"
            d="m 432,97 h -40 v 30 h 40 c 8.284,0 15,-6.716 15,-15 0,-8.284 -6.716,-15 -15,-15 z"/>
    <path
            style="fill:#6c6c6c"
            inkscape:connector-curvature="0"
            id="path4579"
            d="m 408,169 h -32 c -8.284,0 -15,6.716 -15,15 0,8.284 6.716,15 15,15 h 32 c 8.284,0 15,-6.716 15,-15 0,-8.284 -6.716,-15 -15,-15 z"/>
    <path
            style="fill:#404040"
            inkscape:connector-curvature="0"
            id="path4581"
            d="m 408,169 h -16 v 30 h 16 c 8.284,0 15,-6.716 15,-15 0,-8.284 -6.716,-15 -15,-15 z"/>
</svg>
